<svg xmlns="http://www.w3.org/2000/svg" viewBox="0 0 125.92 110.57"><title>Asset 122</title><g id="Layer_2" data-name="Layer 2"><g id="Layer_1-2" data-name="Layer 1"><path d="M121.67,29.47l.43.71a1.38,1.38,0,0,1-.16.14l-1.27.81a8.16,8.16,0,0,1-1.17.81,14.91,14.91,0,0,0-1.83,1l-.06,0h0a.72.72,0,0,1-.71-.11.79.79,0,0,1-.2-.26l-.08-.14-.3-.58c-.15-.29-.25-.61-.42-.9l-1.25-2.1c-.33-.58-.64-1.18-1-1.77a.41.41,0,0,1,0-.11l.71-.39a.76.76,0,0,1,.12.13,4.82,4.82,0,0,1,.52,1,7.34,7.34,0,0,0,.79,1.54c.24.42.55.8.76,1.24s.37,1,.59,1.44c0,.13.15.23.2.35h0l-.08,0L120,30.6a4.82,4.82,0,0,0,.45-.19c.37-.28.73-.59,1.1-.88Z" style="fill:#e8e8ea"/><path d="M114,32.85l-.24.63a.68.68,0,0,1-.42-.87h0l0,.13h0v-.87l0-.9,0-1.8c0-.67,0-1.35,0-2a.4.4,0,0,1,0-.14v0a.82.82,0,0,1,.69-.53.89.89,0,0,1,.4.06l.16.06.64.27c1.13.51,2.29,1,3.45,1.42l1.74.67.87.33.46.18a.72.72,0,0,1,.36.9l0-.13,0,.66c0,.79-.12,1.58-.13,2.37l0,2.58a.33.33,0,0,1,0,.11h0a.68.68,0,0,1-.7.43,1.22,1.22,0,0,1-.29-.08l-.19-.07L120,35.9l-1.54-.57L114,33.6a2.11,2.11,0,0,1-.22-.12l.29-.75a4.06,4.06,0,0,1,.4.11c.82.31,1.67.57,2.45,1,1.25.61,2.56,1.05,3.85,1.53l.55.2.07,0h0l0,.11h0l-.15.1c0-.77,0-1.53,0-2.29,0-1.11.18-2.21.26-3.32v-.09h0l-.11,0-.23-.08-.46-.15c-.31-.1-.62-.19-.92-.31l-3-1.16-1.52-.58-.76-.29-.19-.07-.09,0c0-.12,0,0,0-.07h0l.08-.1,0,1.3c0,.38-.1.77-.1,1.15l.09,3.17a.11.11,0,0,1-.11.12H114S114,32.86,114,32.85Z" style="fill:#e8e8ea"/><path d="M107.46,60.13V70a.85.85,0,0,1-.94.71l-45.79-20a.85.85,0,0,1-.94-.71V8.09a.85.85,0,0,1,.94-.71l45.79,20a.85.85,0,0,1,.94.71V54.8" style="fill:#fff"/><path d="M107.83,54.8c-.32,0-.44-1.18-.73-1.38l-.41-9,.15-6.09c-.1-2.83-.33-6.62-.23-9.05l-.08-1.17a.4.4,0,0,0,.07.27s0,0-.09,0l-.12,0-.28-.11c-4-1.53-9-3.74-12.14-4.88-4.85-2.23-10.48-4.64-14.74-6.73-6.39-2.63-9.29-4-15.69-7L60.32,8.29l.4.08c-.08,0-.11.09,0-.07a.42.42,0,0,0,.06-.18c0-.07,0,0,0,0v6.76c0,2.73,0,5.48,0,8.21,0,5.46,0,10.85.07,16-.26,3.73-.15,6.39-.39,10.17l0,.7c0-.07.06.06.27,0h.12l.17.07c6.09,2.5,14.81,6.3,19.95,8.32,8.32,3.74,17.82,8,25.88,11.42l.07,0-.38-.08c.07,0,.13,0,.11,0a.36.36,0,0,0-.06.16s0,.07,0,0v-.32l.06-1.71c0-1.15.08-2.31.12-3.37.11-2.12.28-3.87.68-4.47a16.1,16.1,0,0,1,.57,4.95l.08,3.19q0,.78,0,1.54V70a1.21,1.21,0,0,1-.06.39,1.31,1.31,0,0,1-.41.6,1.74,1.74,0,0,1-1.11.39h-.13l-.13-.06c-4.46-1.93-8.5-3.85-12.72-5.74-2.77-.89-5.63-2.46-7.94-3.12-2.14-1.25-5.87-2.59-9.2-4.25-5-2.15-7.17-3-11.63-4.8-1.48-.81-2.94-1.4-4.33-2l.29.06a1.81,1.81,0,0,1-1.11-.37,1.43,1.43,0,0,1-.43-.56,1.41,1.41,0,0,1-.1-.63c0-.47,0-.94.09-1.41-.1-5.59-.13-9.57-.07-12.61-.2-2.31,0-3.45,0-7.06s.11-5.45-.13-7.55c.2-.1,0-2.14.07-3,0-1.93.12-3.64.24-5.09a23.55,23.55,0,0,1,.07-4.55l0-.47a1.1,1.1,0,0,1,.28-.75,1.57,1.57,0,0,1,1.15-.5h.1l.11,0c2.26.93,4.07,1.75,6.65,3C78.19,14.19,93.12,21,101,24.08l5.87,2.52-.34-.07a1.87,1.87,0,0,1,1.51.69,1.49,1.49,0,0,1,.24.48,1.68,1.68,0,0,1,.06.46v.44c0,.58,0,1.14,0,1.69l0,3.2c0,2.12.05,4.29.09,7.07a72.4,72.4,0,0,1,.32,9c0,2.3-.26,1.06-.45.58C108.24,52,108.19,54.25,107.83,54.8Z" style="fill:#4a5775;fill-rule:evenodd"/><path d="M107.86,28.68l-48.51-21a1.1,1.1,0,0,1-1.1-1.1h0a1.1,1.1,0,0,1,1.1-1.1l48.51,21a1.1,1.1,0,0,1,1.1,1.1h0A1.1,1.1,0,0,1,107.86,28.68Z" style="fill:#fff"/><path d="M108,28.2l-.24,1.16c-.64-.25-1.21-.46-1.76-.7L94.79,23.83c-9.49-4-18.93-8.24-28.4-12.33L59.07,8.34l.28.06a1.82,1.82,0,0,1,0-3.64h.16l.13.06,30.16,13,18.36,7.95-.3-.06a1.85,1.85,0,0,1,1.55,2.85,1.69,1.69,0,0,1-.58.55,1.85,1.85,0,0,1-.43.18,1.7,1.7,0,0,1-.68.05l.23-1.13c-.06,0,0,0,.08,0a.61.61,0,0,0,.16-.07.64.64,0,0,0,.23-.25.64.64,0,0,0-.57-.94h-.09l-.09,0-12.33-5.3L69.13,10.38l-10-4.28.27.06a.42.42,0,0,0-.41.42.41.41,0,0,0,.41.4h.13l.15.06L73.48,13c5.22,2.25,10.4,4.61,15.61,6.9l13.06,5.69C104,26.38,105.88,27.25,108,28.2Z" style="fill:#4a5775"/><path d="M107.86,72.94l-48.51-21a1.1,1.1,0,0,1-1.1-1.1h0a1.1,1.1,0,0,1,1.1-1.1l48.51,21a1.1,1.1,0,0,1,1.1,1.1h0A1.1,1.1,0,0,1,107.86,72.94Z" style="fill:#fff"/><path d="M108,72.46l-.24,1.16c-.64-.25-1.21-.46-1.76-.7L94.79,68.09c-9.49-4-18.93-8.24-28.4-12.33l-7.31-3.16.28.06a1.82,1.82,0,0,1,0-3.64h.16l.13.06,30.16,13L108.16,70l-.3-.06a1.85,1.85,0,0,1,1.55,2.85,1.69,1.69,0,0,1-.58.55,1.85,1.85,0,0,1-.43.18,1.7,1.7,0,0,1-.68.05l.23-1.13c-.06,0,0,0,.08,0a.61.61,0,0,0,.16-.07.64.64,0,0,0,.23-.25.64.64,0,0,0-.57-.94h-.09l-.09,0-12.33-5.3L69.13,54.63l-10-4.28.27.06a.42.42,0,0,0-.41.42.41.41,0,0,0,.41.4h.13l.15.06,13.84,5.92c5.22,2.25,10.4,4.61,15.61,6.9l13.06,5.69C104,70.63,105.88,71.51,108,72.46Z" style="fill:#4a5775"/><line x1="81.61" y1="61.65" x2="81.61" y2="68.85" style="fill:#fff"/><path d="M81.26,61.68a1.76,1.76,0,0,1,.66,0,.45.45,0,0,1,.22.16c.23.25.47.48.28.73a.86.86,0,0,0-.09.57,2.94,2.94,0,0,0,.06.58c0,.08.15.16.13.24-.09.33-.25.65-.32,1a1.11,1.11,0,0,0,.08.46,1.94,1.94,0,0,1,.07.38c0,.42,0,.84,0,1.25,0,.21-.11.42-.12.62s.09.2.14.3,0,.43-.33.64c-.09.06,0,.12-.1.18s-.11.05-.33.08-.18,0-.37-.21-.23-.34-.21-.45-.06-.1-.06-.15c0-.28,0-.56-.05-.84a3.67,3.67,0,0,1-.15-.61c0-.25.15-.5.19-.75.07-.51.1-1,.15-1.54a1.08,1.08,0,0,0,0-.21c0-.45-.11-.91-.13-1.36,0-.16.1-.31.12-.47s.1-.17.05-.25S80.93,61.79,81.26,61.68Z" style="fill:#4a5775"/><circle cx="81.61" cy="69.66" r="2.09" style="fill:#fff"/><path d="M81.67,67.92a1,1,0,0,1,0-.66.57.57,0,0,1,.37-.18,1.44,1.44,0,0,1,1.65.56,6.55,6.55,0,0,1,.62,1.26,3.37,3.37,0,0,1,.09,1.42c0,.2,0,.44-.09.63a2.86,2.86,0,0,1-2,1.29,5.06,5.06,0,0,1-1.06.17,2.18,2.18,0,0,1-.91-.2,2.58,2.58,0,0,1-1.07-3.87c.12-.2.19-.44.33-.66a1.16,1.16,0,0,1,1.42-.42c.14.06.26,0,.39,0s.12.11.16.32c-.12.09-.09.18-.3.4a1,1,0,0,1-.49.42c-.06,0-.07.12-.11.16a1.25,1.25,0,0,0-.42.88c0,.25.17.45.24.64a1.44,1.44,0,0,0,.42.73,1.42,1.42,0,0,0,1.8-.17.79.79,0,0,0,.17-.23,1.5,1.5,0,0,0-.18-1.63c-.12-.14-.19-.36-.36-.49s-.17-.19-.29-.18S81.81,68.26,81.67,67.92Z" style="fill:#4a5775"/><path d="M125.23,88.78c-.1.11-.21.28-.3.32a2.49,2.49,0,0,1-1.42.4,4.34,4.34,0,0,0-1.34-.12,31.37,31.37,0,0,1-5.69-.37c-.83-.09-1.66-.22-2.48-.37a3.45,3.45,0,0,1-.89-.34c-.11-.06-.23-.12-.26-.73a3.32,3.32,0,0,1,.2-.4.93.93,0,0,1,1-.45l3.43.45c.32,0,.65.07,1,.14a7.62,7.62,0,0,0,1,.25c1.43.1,2.87.13,4.3.27a3.77,3.77,0,0,1,1.15.55l.44.22Z" style="fill:#e8e8ea"/><path d="M117.74,88.75a.94.94,0,0,1-.32-.09,1.66,1.66,0,0,1-.74-1,7.14,7.14,0,0,0-.2-1.12,10.44,10.44,0,0,1,.14-4.71,12.86,12.86,0,0,1,.59-2,2.58,2.58,0,0,1,.41-.66c.06-.08.13-.17.58-.08a2.75,2.75,0,0,1,.26.23.75.75,0,0,1,.16.8,19.23,19.23,0,0,0-.69,2.56c0,.25-.08.49-.14.74a4.75,4.75,0,0,0-.19.73,11.54,11.54,0,0,0,.3,3.19,5.26,5.26,0,0,1,0,.93v.37Z" style="fill:#4a5775"/><path d="M121.7,88.74a.86.86,0,0,1-.32-.07c-.33-.24-.69-.54-.73-.92a6.61,6.61,0,0,0-.18-1.08,15.18,15.18,0,0,1-.18-4.41l.08-1.85a3.15,3.15,0,0,1,.12-.67c0-.09,0-.18.49-.32a2,2,0,0,1,.33.07.71.71,0,0,1,.48.69c0,.94,0,1.83-.07,2.71,0,.25,0,.5,0,.74a5.37,5.37,0,0,0-.13.73,16,16,0,0,0,.34,3.1,5,5,0,0,1-.07.87v.34Z" style="fill:#4a5775"/><path d="M119.55,69.25h0a3.49,3.49,0,0,0-3.48,3.51l0,5.51a1,1,0,0,0,1,1l5,0a1,1,0,0,0,1-1l0-5.51A3.49,3.49,0,0,0,119.55,69.25Z" style="fill:#fef2a6"/><path d="M119.55,70c0-.45,0-.82,0-1.25a2.82,2.82,0,0,1,.59,0,4.13,4.13,0,0,1,3.29,2.6,5.77,5.77,0,0,1,.37,2,12.22,12.22,0,0,1,0,1.77c-.06.7-.09,1.41-.1,2.11l0,1.06a1.62,1.62,0,0,1-1.6,1.62h-3.7c-.41,0-.82,0-1.24-.06a1.58,1.58,0,0,1-1.43-1,1.49,1.49,0,0,1-.12-.55v-.39l0-.76,0-1.52c0-1-.07-2-.06-3.08a4,4,0,0,1,1.15-2.64,4.11,4.11,0,0,1,2.61-1.2,1.88,1.88,0,0,1,.31,0c0,.41,0,.78,0,1.21a3.17,3.17,0,0,1-.33.09,3.5,3.5,0,0,0-1.84,1,2.25,2.25,0,0,0-.7,1.58c0,.66,0,1.42,0,2.13s0,1.21.08,1.81l0,.9v.83a.33.33,0,0,0,.11.25.34.34,0,0,0,.14.08l.46,0c.64.05,1.29.11,1.93.14s1.35-.1,2-.11H122a.48.48,0,0,0,.25,0,.44.44,0,0,0,.24-.35V72.75a3.43,3.43,0,0,0,0-.43,2.38,2.38,0,0,0-.22-1A2.84,2.84,0,0,0,119.81,70,1.51,1.51,0,0,1,119.55,70Z" style="fill:#4a5775"/><ellipse cx="119.97" cy="65.18" rx="2.08" ry="2.06" transform="translate(-5.56 11.49) rotate(-5.36)" style="fill:#fff"/><path d="M122.19,65a3.28,3.28,0,0,1-.31-.23c-.3-.41-.73-.53-1-.77a1.09,1.09,0,0,0-1-.29A1.58,1.58,0,0,0,118.64,65a1.33,1.33,0,0,0,1,1.41,1.45,1.45,0,0,0,1.51-.56,3,3,0,0,0,.38-.59c0-.09.07-.18.52-.32a1.2,1.2,0,0,1,.32.16,1,1,0,0,1,.13,1.25,2.82,2.82,0,0,1-4.15,1,2.55,2.55,0,0,1-.87-1,3.06,3.06,0,0,1-.18-1.31,2.7,2.7,0,0,1,1.46-2.36,2.74,2.74,0,0,1,2.85.19,2,2,0,0,1,.71,1.45,2.35,2.35,0,0,1,0,.57Z" style="fill:#4a5775"/><path d="M125,78.25c-.06-.1-.17-.21-.19-.29a2.67,2.67,0,0,1-.17-1.09,2.06,2.06,0,0,0,0-1,7.29,7.29,0,0,0-2.79-4.94,4,4,0,0,1-.48-.49c-.06-.07-.13-.14,0-.58a1.94,1.94,0,0,1,.25-.23.75.75,0,0,1,.88,0,7.53,7.53,0,0,1,2.12,2.14,4.81,4.81,0,0,1,.42.74c.11.26.14.56.25.81a7.11,7.11,0,0,1,.55,3.66,2.39,2.39,0,0,1-.52.95c-.08.11-.16.22-.24.32Z" style="fill:#4a5775"/><path d="M116.52,72.26c-.1.06-.21.17-.29.18a2,2,0,0,1-1.2,0,6.55,6.55,0,0,0-1-.47,5.1,5.1,0,0,1-2.13-1.38,4.71,4.71,0,0,1-1.16-2.43,3.73,3.73,0,0,1,.37-2.4,1.84,1.84,0,0,1,.66-.66c.1-.06.22-.13.58.16,0,.12.11.24.13.32.11.4.07.55,0,.7a2.74,2.74,0,0,0-.17,2.13,5.41,5.41,0,0,0,.24.61,1.89,1.89,0,0,0,.29.6,7.11,7.11,0,0,0,2.7,1.62,3.81,3.81,0,0,1,.77.62l.3.24Z" style="fill:#4a5775"/><path d="M105.81,55.28a1.29,1.29,0,0,1,.38.09,3.54,3.54,0,0,1,1.19,1,7,7,0,0,0,.86,1.21,50.4,50.4,0,0,1,3.73,5c.52.75,1,1.53,1.51,2.31a5.23,5.23,0,0,1,.43.93c0,.12.1.26-.22.61a2.09,2.09,0,0,1-.36,0,1.16,1.16,0,0,1-.91-.59l-2.12-3.15c-.2-.3-.41-.59-.59-.89s-.31-.65-.52-.94c-.93-1.27-1.91-2.51-2.82-3.8a5.56,5.56,0,0,1-.5-1.27l-.18-.49Z" style="fill:#4a5775"/><path d="M29.06,89.48c-.1.11-.21.28-.3.32a2.49,2.49,0,0,1-1.42.4A4.34,4.34,0,0,0,26,90.07a31.38,31.38,0,0,1-5.69-.37c-.83-.09-1.66-.22-2.48-.37a3.45,3.45,0,0,1-.89-.34c-.11-.06-.23-.12-.26-.73a3.39,3.39,0,0,1,.2-.4.93.93,0,0,1,1-.45l3.43.45c.32,0,.65.07,1,.14a7.6,7.6,0,0,0,1,.25c1.43.1,2.87.13,4.3.27a3.77,3.77,0,0,1,1.15.55l.44.22Z" style="fill:#e8e8ea"/><path d="M13.45,100c-.1.11-.21.28-.3.32a2.49,2.49,0,0,1-1.42.4,4.34,4.34,0,0,0-1.34-.12,31.38,31.38,0,0,1-5.69-.37c-.83-.09-1.66-.22-2.48-.37a3.45,3.45,0,0,1-.89-.34c-.11-.06-.23-.12-.26-.73a3.39,3.39,0,0,1,.2-.4.93.93,0,0,1,1-.45l3.43.45c.32,0,.65.07,1,.14a7.6,7.6,0,0,0,1,.25c1.43.1,2.87.13,4.3.27a3.77,3.77,0,0,1,1.15.55l.44.22Z" style="fill:#e8e8ea"/><path d="M24.13,89.16a1.41,1.41,0,0,1-.16-.3c0-.4-.2-.79-.08-1.11a2.36,2.36,0,0,0,.14-1,39,39,0,0,0-.51-4.3l-.42-1.88a3.29,3.29,0,0,1-.06-.73c0-.1,0-.2.4-.43a2.18,2.18,0,0,1,.34,0,.75.75,0,0,1,.63.57A21.11,21.11,0,0,1,25,82.77c0,.27.09.53.11.8s0,.54,0,.81a11,11,0,0,1,0,3.62,2.34,2.34,0,0,1-.6.91l-.27.31Z" style="fill:#4a5775"/><path d="M20.17,89.16a1.57,1.57,0,0,1-.16-.3c0-.39-.21-.75-.1-1a2.16,2.16,0,0,0,.12-1c-.15-1.39-.17-2.8-.22-4.26a14,14,0,0,1,.06-2,2.3,2.3,0,0,1,.24-.73c0-.09.09-.19.55-.19.11.06.24.12.3.16a.7.7,0,0,1,.35.69c-.07.82,0,1.69,0,2.56,0,.25,0,.5,0,.75a6.58,6.58,0,0,0-.08.75,13.77,13.77,0,0,1,0,3.43,2.16,2.16,0,0,1-.59.89l-.27.3Z" style="fill:#4a5775"/><path d="M22,69.52h0A3.49,3.49,0,0,1,25.53,73l0,5.51a1,1,0,0,1-1,1l-5,0a1,1,0,0,1-1-1l0-5.51A3.49,3.49,0,0,1,22,69.52Z" style="fill:#9e93e4"/><path d="M22,68.81c0,.45,0,.82,0,1.25l-.42.08A2.84,2.84,0,0,0,19.35,72a3.54,3.54,0,0,0-.08,1.53,12.22,12.22,0,0,1,0,1.77c-.06.7-.1,1.41-.12,2.11l0,1.06a.38.38,0,0,0,.19.36.4.4,0,0,0,.2.06H21.1l2.11,0c.41,0,.82,0,1.24.07a.47.47,0,0,0,.53-.28.49.49,0,0,0,0-.19V77.4l0-1.52-.06-3a2.93,2.93,0,0,0-2.65-2.74,1.1,1.1,0,0,1-.22-.06c0-.41,0-.78,0-1.21a2.51,2.51,0,0,1,.51,0,3.72,3.72,0,0,1,2.79,1.6,5,5,0,0,1,.77,2.41l0,2.19c0,.6,0,1.21.06,1.81l0,.9v.68c0,.07,0,.14,0,.29a1.68,1.68,0,0,1-.91,1.3,1.64,1.64,0,0,1-.78.17l-.5,0c-.64-.06-1.29-.12-1.93-.15s-1.35.09-2,.09h-.51a1.63,1.63,0,0,1-.73-.15A1.57,1.57,0,0,1,18,78.68c0-.15,0-.24,0-.32V73a4.47,4.47,0,0,1,0-.58,4.53,4.53,0,0,1,.51-1.27,4.16,4.16,0,0,1,3.12-2.36A3.38,3.38,0,0,1,22,68.81Z" style="fill:#4a5775"/><ellipse cx="21.63" cy="65.46" rx="2.06" ry="2.08" transform="matrix(0.09, -1, 1, 0.09, -45.57, 80.88)" style="fill:#fff"/><path d="M23.54,65.64c.08.09.21.21.22.31a1.55,1.55,0,0,1-.55,1.56,3.49,3.49,0,0,1-1.65.55,2.61,2.61,0,0,1-2.74-2.3,2.8,2.8,0,0,1,2.15-3A2.74,2.74,0,0,1,24,64a2,2,0,0,1,.22,1.22c0,.15-.06.33-.52.39-.12-.07-.25-.12-.31-.16a1.24,1.24,0,0,1-.54-.58,1.37,1.37,0,0,0-2-.55,1.6,1.6,0,0,0-.45.49,1.1,1.1,0,0,0-.25.66,1.42,1.42,0,0,0,.89,1.2,1.45,1.45,0,0,0,1.41-.18,2.79,2.79,0,0,0,.77-.54,1.77,1.77,0,0,0,.21-.36Z" style="fill:#4a5775"/><path d="M16.92,78.42a1,1,0,0,1-.32-.11,1.69,1.69,0,0,1-.66-1,10.27,10.27,0,0,0-.1-1.15,6,6,0,0,1,1.47-4.64A6.2,6.2,0,0,1,19,70.1a2.28,2.28,0,0,1,.77-.25c.1,0,.22,0,.48.34a3.28,3.28,0,0,1,0,.34.74.74,0,0,1-.37.68,6,6,0,0,0-1.78,1.66c-.14.19-.25.39-.37.58a2.73,2.73,0,0,0-.38.59,6.43,6.43,0,0,0-.17,3,4.89,4.89,0,0,1-.12.92l0,.37Z" style="fill:#4a5775"/><path d="M26,68.36A.51.51,0,0,1,26,68a.88.88,0,0,1,1-.44,3.51,3.51,0,0,1,.93.67,3.08,3.08,0,0,1,.87,1.94,3.17,3.17,0,0,1-.59,2.19,2.46,2.46,0,0,1-1.87,1,1.31,1.31,0,0,1-.77-.26c-.08-.05-.18-.15,0-.58.09-.09.16-.2.21-.25.26-.29.31-.34.42-.33a1.18,1.18,0,0,0,1.05-.68,3.13,3.13,0,0,0,.14-.41,1.16,1.16,0,0,0,.13-.47c-.06-.72-.55-1.54-.88-1.57-.08,0-.17-.25-.34-.31a.49.49,0,0,0-.2,0Z" style="fill:#4a5775"/><path d="M62.44,109.13c-.1.11-.21.28-.3.32a2.49,2.49,0,0,1-1.42.4,4.34,4.34,0,0,0-1.34-.12,31.37,31.37,0,0,1-5.69-.37c-.83-.09-1.66-.22-2.48-.37a3.45,3.45,0,0,1-.89-.34c-.11-.06-.23-.12-.26-.73a3.32,3.32,0,0,1,.2-.4.93.93,0,0,1,1-.45l3.43.45c.32,0,.65.07,1,.14a7.62,7.62,0,0,0,1,.25c1.43.1,2.87.13,4.3.27a3.77,3.77,0,0,1,1.15.55l.44.22Z" style="fill:#e8e8ea"/><path d="M39.94,109.83c-.1.11-.21.28-.3.32a2.49,2.49,0,0,1-1.42.4,4.34,4.34,0,0,0-1.34-.12,31.37,31.37,0,0,1-5.69-.37c-.83-.09-1.66-.22-2.48-.37a3.45,3.45,0,0,1-.89-.34c-.11-.06-.23-.12-.26-.73a3.32,3.32,0,0,1,.2-.4.93.93,0,0,1,1-.45l3.43.45c.32,0,.65.07,1,.14a7.62,7.62,0,0,0,1,.25c1.43.1,2.87.13,4.3.27a3.77,3.77,0,0,1,1.15.55l.44.22Z" style="fill:#e8e8ea"/><path d="M57.51,108.71a1.41,1.41,0,0,1-.16-.3c0-.4-.2-.79-.09-1.11a2.36,2.36,0,0,0,.14-1,39.12,39.12,0,0,0-.51-4.3l-.42-1.88a3.29,3.29,0,0,1-.06-.73c0-.1,0-.2.4-.43a2.17,2.17,0,0,1,.34,0,.75.75,0,0,1,.63.57,21.11,21.11,0,0,1,.64,2.78c0,.27.09.53.11.8s0,.54,0,.81a11,11,0,0,1,0,3.62,2.34,2.34,0,0,1-.6.91l-.27.31Z" style="fill:#4a5775"/><path d="M53.54,108.72a1.57,1.57,0,0,1-.16-.3c0-.39-.21-.75-.1-1a2.15,2.15,0,0,0,.12-1c-.15-1.39-.17-2.8-.22-4.26a14,14,0,0,1,.06-2,2.29,2.29,0,0,1,.24-.73c0-.09.09-.19.55-.19a3.35,3.35,0,0,1,.3.16.7.7,0,0,1,.35.69c-.07.82,0,1.69,0,2.56,0,.25,0,.5,0,.75a6.58,6.58,0,0,0-.08.75,13.75,13.75,0,0,1,0,3.43,2.16,2.16,0,0,1-.59.89l-.27.3Z" style="fill:#4a5775"/><path d="M55.42,89.08h0a3.49,3.49,0,0,1,3.48,3.51l0,5.51a1,1,0,0,1-1,1l-5,0a1,1,0,0,1-1-1l0-5.51A3.49,3.49,0,0,1,55.42,89.08Z" style="fill:#ac8b68"/><path d="M55.42,88.37c0,.45,0,.82,0,1.25L55,89.7a2.84,2.84,0,0,0-2.27,1.88,3.54,3.54,0,0,0-.08,1.53,12.22,12.22,0,0,1,0,1.77c-.06.7-.1,1.41-.12,2.11l0,1.06a.38.38,0,0,0,.19.36.4.4,0,0,0,.2.06h1.58l2.11,0c.41,0,.82,0,1.24.07a.47.47,0,0,0,.53-.28.49.49,0,0,0,0-.19V97l0-1.52-.06-3a2.93,2.93,0,0,0-2.65-2.74,1.1,1.1,0,0,1-.22-.06c0-.41,0-.78,0-1.21a2.51,2.51,0,0,1,.51,0A3.72,3.72,0,0,1,58.72,90a5,5,0,0,1,.77,2.41l0,2.19c0,.6,0,1.21.06,1.81l0,.9V98c0,.07,0,.14,0,.29a1.68,1.68,0,0,1-.91,1.3,1.64,1.64,0,0,1-.78.17l-.5,0c-.64-.06-1.29-.12-1.93-.15s-1.35.09-2,.09H53a1.62,1.62,0,0,1-.73-.15,1.57,1.57,0,0,1-.88-1.24c0-.15,0-.24,0-.32V92.58a4.47,4.47,0,0,1,0-.58,4.51,4.51,0,0,1,.51-1.27A4.16,4.16,0,0,1,55,88.37,3.39,3.39,0,0,1,55.42,88.37Z" style="fill:#4a5775"/><ellipse cx="55" cy="85.01" rx="2.06" ry="2.08" transform="matrix(0.09, -1, 1, 0.09, -34.78, 131.83)" style="fill:#fff"/><path d="M56.92,85.19c.08.09.21.21.22.31a1.55,1.55,0,0,1-.55,1.56,3.49,3.49,0,0,1-1.65.55,2.61,2.61,0,0,1-2.74-2.3,2.8,2.8,0,0,1,2.15-3,2.74,2.74,0,0,1,3,1.3,2,2,0,0,1,.22,1.22c0,.15-.06.33-.52.39-.12-.07-.25-.12-.31-.16a1.25,1.25,0,0,1-.54-.58,1.37,1.37,0,0,0-2-.55,1.6,1.6,0,0,0-.45.49,1.1,1.1,0,0,0-.25.66,1.42,1.42,0,0,0,.89,1.2,1.45,1.45,0,0,0,1.41-.18,2.79,2.79,0,0,0,.77-.54,1.77,1.77,0,0,0,.21-.36Z" style="fill:#4a5775"/><path d="M7.26,80.52h0A3.49,3.49,0,0,1,10.74,84l0,5.51a1,1,0,0,1-1,1l-5,0a1,1,0,0,1-1-1l0-5.51A3.49,3.49,0,0,1,7.26,80.52Z" style="fill:#fc7b74"/><path d="M7.26,79.81c0,.45,0,.82,0,1.25l-.42.08A2.84,2.84,0,0,0,4.56,83a3.54,3.54,0,0,0-.08,1.53,12.22,12.22,0,0,1,0,1.77c-.06.7-.1,1.41-.12,2.11l0,1.06a.38.38,0,0,0,.19.36.4.4,0,0,0,.2.06H6.31l2.11,0c.41,0,.82,0,1.24.07a.47.47,0,0,0,.53-.28.49.49,0,0,0,0-.19V88.4l0-1.52-.06-3a2.93,2.93,0,0,0-2.65-2.74,1.1,1.1,0,0,1-.22-.06c0-.41,0-.78,0-1.21a2.51,2.51,0,0,1,.51,0,3.72,3.72,0,0,1,2.79,1.6,5,5,0,0,1,.77,2.41l0,2.19c0,.6,0,1.21.06,1.81l0,.9v.68c0,.07,0,.14,0,.29a1.67,1.67,0,0,1-.91,1.3,1.64,1.64,0,0,1-.78.17l-.5,0C8.61,91.08,8,91,7.33,91s-1.35.09-2,.09H4.79a1.63,1.63,0,0,1-.73-.15,1.57,1.57,0,0,1-.88-1.24,3,3,0,0,1,0-.32V84a4.55,4.55,0,0,1,0-.58,4.54,4.54,0,0,1,.51-1.27,4.16,4.16,0,0,1,3.12-2.36A3.39,3.39,0,0,1,7.26,79.81Z" style="fill:#4a5775"/><ellipse cx="6.84" cy="76.46" rx="2.06" ry="2.08" transform="matrix(0.09, -1, 1, 0.09, -69.92, 76.13)" style="fill:#fff"/><path d="M4.92,76.28c-.08-.09-.21-.21-.22-.31a1.55,1.55,0,0,1,.55-1.56,3.49,3.49,0,0,1,1.65-.55,2.61,2.61,0,0,1,2.74,2.3,2.8,2.8,0,0,1-2.15,3,2.74,2.74,0,0,1-3-1.3,2,2,0,0,1-.22-1.22c0-.15.06-.33.52-.39.12.07.25.12.31.16a1.24,1.24,0,0,1,.54.58,1.37,1.37,0,0,0,2,.55,1.6,1.6,0,0,0,.45-.49,1.1,1.1,0,0,0,.25-.66,1.42,1.42,0,0,0-.89-1.2A1.45,1.45,0,0,0,6,75.39a2.79,2.79,0,0,0-.77.54,1.77,1.77,0,0,0-.21.36Z" style="fill:#4a5775"/><path d="M11.26,72.15a1,1,0,0,1,.32.12,2,2,0,0,1,.75,1,6.74,6.74,0,0,0,.26,1.17,9.81,9.81,0,0,1,.06,5.08,9.77,9.77,0,0,1-.73,2.14,2.61,2.61,0,0,1-.5.68c-.07.08-.16.17-.6,0a2.71,2.71,0,0,1-.23-.26.82.82,0,0,1-.07-.85,12,12,0,0,0,.82-2.65l.13-.78a4.4,4.4,0,0,0,.16-.78,13.22,13.22,0,0,0-.52-3.43,4.58,4.58,0,0,1,0-1v-.4Z" style="fill:#4a5775"/><path d="M.08,88.56A1.18,1.18,0,0,1,0,88.24c.06-.35.05-.75.28-.95a2.23,2.23,0,0,0,.54-.69c.54-1.14,1.27-2.11,1.85-3.19L3.45,82a2.27,2.27,0,0,1,.4-.48c.06-.06.12-.12.57,0a2.52,2.52,0,0,1,.25.21.61.61,0,0,1,.14.73q-.51,1.08-1.12,2.1c-.11.19-.22.39-.36.57a6,6,0,0,0-.44.51,19.14,19.14,0,0,1-1.62,2.46,2.19,2.19,0,0,1-.78.42l-.3.14Z" style="fill:#4a5775"/><path d="M5.12,99.8c-.09-.07-.22-.15-.26-.22a2,2,0,0,1-.36-1.09,3.75,3.75,0,0,0,.05-1.06,19.52,19.52,0,0,1,.27-4.49c.08-.65.21-1.3.36-1.95a2.71,2.71,0,0,1,.29-.69c0-.09.1-.18.56-.17a2.54,2.54,0,0,1,.29.17.73.73,0,0,1,.29.76q-.24,1.32-.43,2.64c0,.25-.06.5-.11.75a5.74,5.74,0,0,0-.19.74c-.07,1.11-.07,2.23-.12,3.33a3.12,3.12,0,0,1-.36.92l-.15.35Z" style="fill:#4a5775"/><path d="M9.8,99.47c-.09-.06-.22-.13-.26-.19-.18-.32-.44-.64-.4-1a2.65,2.65,0,0,0,0-.93,32.75,32.75,0,0,1-.36-3.91c0-.57-.07-1.15-.09-1.73a2.31,2.31,0,0,1,.11-.65c0-.08,0-.18.49-.29a2.57,2.57,0,0,1,.33.07c.39.16.46.37.48.59.06.81.12,1.62.16,2.43,0,.23,0,.46,0,.69a5.59,5.59,0,0,0-.07.69c.09,1,.2,2,.2,3a2.45,2.45,0,0,1-.33.84l-.14.32Z" style="fill:#4a5775"/><path d="M33.43,90.52h0A3.49,3.49,0,0,1,36.91,94l0,5.51a1,1,0,0,1-1,1l-5,0a1,1,0,0,1-1-1l0-5.51A3.49,3.49,0,0,1,33.43,90.52Z" style="fill:#2fda95"/><path d="M33.43,89.81c0,.45,0,.82,0,1.25l-.42.08A2.84,2.84,0,0,0,30.73,93a3.54,3.54,0,0,0-.08,1.53,12.22,12.22,0,0,1,0,1.77c-.06.7-.1,1.41-.12,2.11l0,1.06a.38.38,0,0,0,.19.36.4.4,0,0,0,.2.06h1.58l2.11,0c.41,0,.82,0,1.24.07a.47.47,0,0,0,.53-.28.49.49,0,0,0,0-.19V98.4l0-1.52-.06-3a2.93,2.93,0,0,0-2.65-2.74,1.1,1.1,0,0,1-.22-.06c0-.41,0-.78,0-1.21a2.51,2.51,0,0,1,.51,0,3.72,3.72,0,0,1,2.79,1.6,5,5,0,0,1,.77,2.41l0,2.19c0,.6,0,1.21.06,1.81l0,.9v.68c0,.07,0,.14,0,.29a1.68,1.68,0,0,1-.91,1.3,1.64,1.64,0,0,1-.78.17l-.5,0c-.64-.06-1.29-.12-1.93-.15s-1.35.09-2,.09H31a1.63,1.63,0,0,1-.73-.15,1.57,1.57,0,0,1-.88-1.24,3.08,3.08,0,0,1,0-.32V94a4.47,4.47,0,0,1,0-.58,4.53,4.53,0,0,1,.51-1.27A4.16,4.16,0,0,1,33,89.81,3.38,3.38,0,0,1,33.43,89.81Z" style="fill:#4a5775"/><ellipse cx="33.01" cy="86.46" rx="2.06" ry="2.08" transform="matrix(0.09, -1, 1, 0.09, -56.16, 111.25)" style="fill:#fff"/><path d="M31.09,86.28c-.08-.09-.21-.21-.22-.31a1.55,1.55,0,0,1,.55-1.56,3.49,3.49,0,0,1,1.65-.55,2.61,2.61,0,0,1,2.74,2.3,2.8,2.8,0,0,1-2.15,3,2.74,2.74,0,0,1-3-1.3,1.94,1.94,0,0,1-.22-1.22c0-.15.06-.33.52-.39.12.07.25.12.31.16a1.24,1.24,0,0,1,.54.58,1.37,1.37,0,0,0,2,.55,1.6,1.6,0,0,0,.45-.49,1.1,1.1,0,0,0,.25-.66,1.42,1.42,0,0,0-.89-1.2,1.45,1.45,0,0,0-1.41.18,2.79,2.79,0,0,0-.77.54,1.75,1.75,0,0,0-.21.36Z" style="fill:#4a5775"/><path d="M31.29,109.8c-.09-.07-.22-.15-.26-.22a2,2,0,0,1-.36-1.09,3.73,3.73,0,0,0,.05-1.06,19.52,19.52,0,0,1,.27-4.49c.08-.65.21-1.3.36-1.95a2.69,2.69,0,0,1,.29-.69c0-.09.1-.18.56-.17a2.5,2.5,0,0,1,.29.17.73.73,0,0,1,.29.76q-.24,1.32-.43,2.64c0,.25-.06.5-.11.75a5.59,5.59,0,0,0-.19.74c-.07,1.11-.07,2.23-.12,3.33a3.11,3.11,0,0,1-.36.92l-.15.35Z" style="fill:#4a5775"/><path d="M36,109.47c-.09-.06-.22-.13-.26-.19-.18-.32-.44-.64-.4-1a2.66,2.66,0,0,0,0-.93,32.65,32.65,0,0,1-.36-3.91c0-.57-.07-1.15-.09-1.73a2.31,2.31,0,0,1,.11-.65c0-.08,0-.18.49-.29a2.61,2.61,0,0,1,.33.07c.39.16.46.37.48.59.06.81.12,1.62.16,2.43,0,.23,0,.46,0,.69a5.59,5.59,0,0,0-.07.69c.09,1,.2,2,.2,3a2.47,2.47,0,0,1-.33.84l-.14.32Z" style="fill:#4a5775"/><path d="M40.4,89a1,1,0,0,1,.32.15,1.84,1.84,0,0,1,.6,1.18c0,.43,0,.85-.05,1.29a3.85,3.85,0,0,1-1.1,2.65,4,4,0,0,1-2.75,1.12A6.75,6.75,0,0,1,35,95a3,3,0,0,1-.75-.4c-.09-.06-.19-.13-.13-.59a2.39,2.39,0,0,1,.22-.26.84.84,0,0,1,.86-.17,5.91,5.91,0,0,0,2.65.3,3.5,3.5,0,0,0,.65-.2,1.7,1.7,0,0,0,.62-.29,3.85,3.85,0,0,0,.89-3,7.12,7.12,0,0,1,.18-1l0-.4Z" style="fill:#4a5775"/><path d="M42,91.07a1.39,1.39,0,0,0,.73-.21,1.65,1.65,0,0,0,.82-.8.64.64,0,0,0,.16-.41c0-.18,0-.23,0-.41a1.25,1.25,0,0,0,.09-.92c-.06-1.14-.11-1.57-.14-2.84a7.63,7.63,0,0,1-.11-1.07,6.42,6.42,0,0,0,0-.74A1.53,1.53,0,0,0,43,82.8a1.51,1.51,0,0,0-1-.34l-.7,0c-.46,0-.91,0-1.31.1a3.06,3.06,0,0,0-1.28,0c-.2,0-.4-.2-.7,0a1.22,1.22,0,0,0-1,.37c-.19.13-.26.6-.38.59,0,.57,0,.72,0,1.25s-.11.67,0,1a10.36,10.36,0,0,0,0,1.78c-.16.34,0,.69-.15,1.07.06.34.09.59.12.85a1.66,1.66,0,0,0,.5,1.19,1.27,1.27,0,0,0,1,.47,1.33,1.33,0,0,1,.65.09c.33-.21.79,0,1.2-.21.65,0,1.28.12,2,.11V90c-.62,0-1.29,0-2,0l-1,0-.5,0a2.15,2.15,0,0,1-.38,0,.34.34,0,0,1-.31-.09.45.45,0,0,1-.11-.18.58.58,0,0,1,0-.11v-.23c0-.61-.06-1.23-.13-1.71.16-.53.09-.91.26-1.43a12,12,0,0,1-.06-1.23V84a.44.44,0,0,1,.44-.45c.41,0,.85,0,1.26-.05a7.61,7.61,0,0,0,2.42.12l.13,0,0,0,.07.05a.4.4,0,0,1,.09.12.23.23,0,0,1,0,.13l0,.58c.17.56.11,1.55.36,2.19A4.3,4.3,0,0,0,42.71,88c0,.33-.07.43-.1.86s.15.66.18.86c-.23.21-.53.41-.76.29Z" style="fill:#4a5775;fill-rule:evenodd"/><path d="M39,86.11" style="fill:none;stroke:#aafc29;stroke-miterlimit:10;stroke-width:0.25px"/><path d="M41.77,87.69s0,.08-.07.09a.67.67,0,0,1-.36.13,1.2,1.2,0,0,0-.35,0,8.63,8.63,0,0,1-1.5,0l-.66,0a.94.94,0,0,1-.24-.06s-.06,0-.09-.18a.77.77,0,0,1,0-.1.24.24,0,0,1,.24-.13l.91,0H40a2.09,2.09,0,0,0,.25,0c.38,0,.75,0,1.13,0a1,1,0,0,1,.32.11l.12,0Z" style="fill:#bad1f3"/><path d="M41.77,88.66s0,.08-.07.09a.67.67,0,0,1-.36.13,1.2,1.2,0,0,0-.35,0,8.63,8.63,0,0,1-1.5,0l-.66,0a.94.94,0,0,1-.24-.06s-.06,0-.09-.18a.77.77,0,0,1,0-.1.24.24,0,0,1,.24-.13l.91,0H40a2.09,2.09,0,0,0,.25,0c.38,0,.75,0,1.13,0a1,1,0,0,1,.32.11l.12,0Z" style="fill:#bad1f3"/><path d="M41.77,85.83s0,.08-.07.09a.67.67,0,0,1-.36.13,1.2,1.2,0,0,0-.35,0,8.63,8.63,0,0,1-1.5,0l-.66,0a.94.94,0,0,1-.24-.06s-.06,0-.09-.18a.77.77,0,0,1,0-.1.24.24,0,0,1,.24-.13l.91,0H40a2.09,2.09,0,0,0,.25,0c.38,0,.75,0,1.13,0a1,1,0,0,1,.32.11l.12,0Z" style="fill:#bad1f3"/><path d="M41.77,84.79s0,.08-.07.09a.67.67,0,0,1-.36.13A1.2,1.2,0,0,0,41,85a8.63,8.63,0,0,1-1.5,0l-.66,0a.94.94,0,0,1-.24-.06s-.06,0-.09-.18a.77.77,0,0,1,0-.1.24.24,0,0,1,.24-.13l.91,0H40a2.09,2.09,0,0,0,.25,0c.38,0,.75,0,1.13,0a1,1,0,0,1,.32.11l.12,0Z" style="fill:#bad1f3"/><path d="M41.77,86.8s0,.08-.07.09a.67.67,0,0,1-.36.13A1.2,1.2,0,0,0,41,87a8.63,8.63,0,0,1-1.5,0l-.66,0a.94.94,0,0,1-.24-.06s-.06,0-.09-.18a.77.77,0,0,1,0-.1.24.24,0,0,1,.24-.13l.91,0H40a2.09,2.09,0,0,0,.25,0c.38,0,.75,0,1.13,0a1,1,0,0,1,.32.11l.12,0Z" style="fill:#bad1f3"/><path d="M88.49,33.31,79.2,30.13a2.73,2.73,0,0,0-3.29,2l-.18,11.29a2.73,2.73,0,0,0,2,3.29l.1,0A103.61,103.61,0,0,1,90,51.46l.07,0a.31.31,0,0,0,.38-.32c0-4,.06-14.59.06-14.59a2.7,2.7,0,0,0-2-3.28Z" style="fill:none"/><path d="M88.34,33.82a2.48,2.48,0,0,1,.94.44,1.94,1.94,0,0,1,.62,1.29c-.06.28,0,.47-.08.88l0,.14v0c0,.11,0,.24,0,.39a7.46,7.46,0,0,0-.1,2.29c0,2.85.1,3.91.1,7.07.05.69.08,1.53.09,2.46,0,.47,0,1,0,1.47q0,.38,0,.78v.15h.19s0,0,0,0h0l0-.21h0l0,0,.13,0a48,48,0,0,0-6.74-2.7,16.93,16.93,0,0,0-3-1.11,4.21,4.21,0,0,0-1.5-.56,7.52,7.52,0,0,0-.78-.35,4.53,4.53,0,0,1-.78-.31c-.21-.11-.71-.41-.61-.53a1.76,1.76,0,0,1-.54-1.85l0-.1v-.08a22.49,22.49,0,0,0,0-2.47c.06-1.06.06-2.46,0-4.42.17-.84,0-1.7.19-2.66l-.07-1.68v.12a2.13,2.13,0,0,1,1.36-1.62,2.89,2.89,0,0,1,1.27,0H79a10.09,10.09,0,0,1,1.84.73c.85.07,1.88.62,2.9.77,1.52.56,3,1.14,4.58,1.69l.29-1c-2.88-.93-6.27-2.15-9.24-3.24h-.06l-.1,0a3.43,3.43,0,0,0-2.24.43,3.27,3.27,0,0,0-1.54,2.12v.1c0,1.46,0,2.93.06,4.07-.19,1.32-.13,2.25-.32,3.56,0,1.18,0,2.41,0,3.66v-.12a3.3,3.3,0,0,0,.44,2.55,3.38,3.38,0,0,0,2.14,1.46c1.34.41,2.78.94,4.15,1.37,2.26,1,3.29,1.45,5.54,2.28.66.35,1.43.72,2.16,1.13l0,0,.16.06c.05,0,0,0,.13.05a1,1,0,0,0,.35,0,1.09,1.09,0,0,0,.6-.3,1.07,1.07,0,0,0,.31-.63V51l0-.8,0-1.57c-.16-1.38-.09-3.83-.33-5.43A26,26,0,0,0,90.81,40l.11-2.13-.11-1.32v.07a3.05,3.05,0,0,0,0-1,2.39,2.39,0,0,0-.5-1.67,3.39,3.39,0,0,0-1.66-1.17Z" style="fill:#538ae4;fill-rule:evenodd"/><line x1="79.25" y1="39.1" x2="87.25" y2="41.46" style="fill:#f6f6f8"/><path d="M79.22,39.33a.69.69,0,0,1,.11-.43.4.4,0,0,1,.22-.09c.32-.06.62-.14.86.06a1.65,1.65,0,0,0,.61.25,5.86,5.86,0,0,0,.66.15c.09,0,.21,0,.29,0,.34.16.68.37,1,.53a2.15,2.15,0,0,0,.52.1A3.74,3.74,0,0,1,84,40c.46.14.93.28,1.39.44.23.08.44.21.67.29a1.28,1.28,0,0,0,.36,0,.77.77,0,0,1,.65.42c0,.08.13.07.19.12s0,.09,0,.24-.09.1-.3.17a.65.65,0,0,1-.54,0c-.06,0-.12,0-.18,0-.32-.08-.63-.18-.94-.24a7,7,0,0,1-.71-.1c-.27-.09-.52-.26-.8-.37-.56-.21-1.12-.41-1.69-.61l-.24-.07c-.51-.12-1-.23-1.54-.36-.18,0-.33-.17-.5-.23s-.17-.12-.27-.12S79.28,39.58,79.22,39.33Z" style="fill:#538ae4"/><line x1="79.25" y1="41.97" x2="84.25" y2="43.34" style="fill:#f6f6f8"/><path d="M79.21,42.2a1.09,1.09,0,0,1,.11-.43.3.3,0,0,1,.15-.11c.21-.1.41-.21.56,0a.66.66,0,0,0,.38.17,2.29,2.29,0,0,0,.41.07c.06,0,.14-.06.19,0,.21.12.41.28.62.39a.86.86,0,0,0,.33,0,1.49,1.49,0,0,1,.28,0c.29.08.58.17.86.27s.27.15.41.2.16,0,.24,0,.3.08.38.34c0,.07.08.06.11.1s0,.08,0,.23-.06.11-.21.2-.27.08-.35.05-.08,0-.12,0c-.2,0-.39-.1-.59-.13a2.83,2.83,0,0,1-.45,0c-.17-.05-.32-.19-.49-.26-.35-.14-.7-.26-1-.39l-.15,0c-.32-.06-.65-.1-1-.17-.11,0-.2-.13-.31-.17s-.1-.09-.17-.08S79.23,42.44,79.21,42.2Z" style="fill:#538ae4"/><line x1="79.25" y1="35.98" x2="84.25" y2="37.34" style="fill:#f6f6f8"/><path d="M79.21,36.21a1.09,1.09,0,0,1,.11-.43.3.3,0,0,1,.15-.11c.21-.1.41-.21.56,0a.66.66,0,0,0,.38.17,2.29,2.29,0,0,0,.41.07c.06,0,.14-.06.19,0,.21.12.41.28.62.39a.86.86,0,0,0,.33,0,1.49,1.49,0,0,1,.28,0c.29.08.58.17.86.27s.27.15.41.2.16,0,.24,0,.3.08.38.34c0,.07.08.06.11.1s0,.08,0,.23-.06.11-.21.2-.27.08-.35.05-.08,0-.12,0c-.2,0-.39-.1-.59-.13a2.83,2.83,0,0,1-.45,0c-.17-.05-.32-.19-.49-.26-.35-.14-.7-.26-1-.39l-.15,0c-.32-.06-.65-.1-1-.17-.11,0-.2-.13-.31-.17s-.1-.09-.17-.08S79.23,36.45,79.21,36.21Z" style="fill:#538ae4"/><path d="M51.3,15.88l-.41-.72a.7.7,0,0,1,1,.24l1.94,3.32.48.78.25.39a1.45,1.45,0,0,1,.16.28.82.82,0,0,1,0,.55.83.83,0,0,1-.35.43l-.19.12-.39.23c-.26.15-.53.3-.8.44s-.8.41-.61.29l-.19,1.07-.09.53,0,.27a1,1,0,0,1-.06.22.74.74,0,0,1-.72.46.78.78,0,0,1-.26-.06l-.13-.05-.5-.2-1-.4L49.13,24s.07,0,0,0l-.47.27-.94.54-.47.27-.12.07a.72.72,0,0,1-.83-.08,1.22,1.22,0,0,1-.25-.37l-.15-.28-.29-.56c-.2-.37-.39-.75-.61-1.11l-.79-1.35-.4-.67-.2-.34-.1-.17a.7.7,0,0,1,.27-1l.34-.2.67-.4,1.35-.79,4.48-2.56a2.36,2.36,0,0,1,.25-.11l.4.7c-.12.08-.23.18-.36.25-.81.47-1.59,1-2.44,1.39-1.35.63-2.59,1.41-3.87,2.16l-.4.24,0,0-.06-.08h0l.09-.05h0l0,0,0,0,.12.2.24.39c.32.53.65,1.05.95,1.6s.62,1.17.91,1.76l.22.44.11.22h0s0,0,0,0l.2-.1.44-.23c.3-.16.6-.35.89-.54l.44-.28a.73.73,0,0,1,.46-.12,1.35,1.35,0,0,1,.34.1l1,.38.49.19.24.1c0,.09,0,0,0,0h0c-.08,0,0,0,0-.05l0-.13.08-.52.16-1,0-.26a.71.71,0,0,1,.28-.46l.49-.28.91-.52.45-.26.23-.13,0,0s0,0,0,0-.1-.13-.15-.2l-.26-.45c-.2-.36-.34-.75-.56-1.1l-1-1.51-.49-.75L51.24,16l-.12-.19,0,0,.12-.08h0Z" style="fill:#e8e8ea"/><path d="M50,17.85l.41.72s0,.05,0,.06-.29.17-.42.27-.2.28-.37.3a3.89,3.89,0,0,0-1,.47,2.12,2.12,0,0,0-.32.1c-.23.15-.44.33-.67.48s-.39.22-.59.32h0l-.4-.7s0-.05,0-.06.18-.18.32-.17.37-.13.53-.24.23-.24.38-.3.37,0,.54-.1.13-.15.2-.19l.95-.54s.13,0,.17,0,.21-.26.31-.39Z" style="fill:#e8e8ea"/><path d="M49.63,20.4l.41.72s0,0,0,.05-.17.11-.25.17-.09.22-.21.21c-.27,0-.42.17-.64.25-.06,0-.15,0-.21,0s-.25.22-.38.31a2.85,2.85,0,0,1-.36.19l0,0-.4-.7s0,0,0-.05.09-.13.2-.1.23-.06.33-.12.12-.17.22-.21.25,0,.36,0,.06-.11.11-.14l.57-.32s.1,0,.12,0a2.66,2.66,0,0,0,.15-.3Z" style="fill:#e8e8ea"/><path d="M91.75,6.37l-.7.45a1.08,1.08,0,0,1-.13-.13l-.74-1.11c-.12-.17-.26-.33-.4-.49L89.69,5l0,0-.07-.07a.21.21,0,0,0-.28,0l-.62.42-.61.44a2.8,2.8,0,0,1-.76.44,1.13,1.13,0,0,1-1.15-.44l-.65-.9c-.16-.25-.32-.25-.48-.2-.48.23-1.07.47-1.6.71h-.1L83,4.56a.61.61,0,0,1,.12-.1A3.77,3.77,0,0,1,84,4.07a3.52,3.52,0,0,0,.77-.25A1.14,1.14,0,0,1,85.91,4a6.2,6.2,0,0,1,.49.57,4.71,4.71,0,0,1,.37.52c.1.18.22.4.59.18.21-.12.35-.33.55-.47l.59-.42.29-.21A1.24,1.24,0,0,1,89.24,4a1.1,1.1,0,0,1,1,.28,1.69,1.69,0,0,1,.27.36l.19.31c.08.12.08.28.17.39.26.32.54.63.82.94A.52.52,0,0,1,91.75,6.37Z" style="fill:#e8e8ea"/><path d="M89.7,9.56l.25-.79a.47.47,0,0,0,.24,0,.49.49,0,0,0,.3-.41l.23-.88.46-1.76c.14-.56.26-1.12.38-1.69l.18-.77a.47.47,0,0,0-.1-.35c0-.08-.44-.19-.74-.31l-1-.33L88,1.6,86,1,85.51.84c-.14,0-.38-.12-.42-.12a.41.41,0,0,0-.41.25c-.2.65-.48,1.49-.68,2.24l-.73,2.87a.52.52,0,0,0,.37.7l1.42.42,4.65,1.46a2.15,2.15,0,0,1,.23.11l-.24.77c-.14,0-.27,0-.41-.08-.85-.26-1.72-.46-2.53-.8-.65-.27-1.31-.49-2-.7l-1-.3-.53-.16a1.23,1.23,0,0,1-.6-.49,1.43,1.43,0,0,1-.15-1.18L82.7,5c.13-.57.27-1.14.43-1.7s.37-1.2.57-1.79L83.85,1a2.1,2.1,0,0,1,.22-.53A1.14,1.14,0,0,1,85.22,0c.7.22,1.29.33,1.94.52l3.77,1.17c.34.11.58.17,1,.32a1.25,1.25,0,0,1,.69,1.15,1.34,1.34,0,0,1,0,.34l-.06.24-.13.48-.26,1c-.1.37-.28.73-.37,1.11L91.4,7.94l-.09.41a2.87,2.87,0,0,1-.12.48,1.27,1.27,0,0,1-1,.79A1.1,1.1,0,0,1,89.7,9.56Z" style="fill:#e8e8ea"/><path d="M86,2.71l.8.21s0,0,0,.05a.4.4,0,0,0,.08.3c.08.08.19,0,.22.08a.16.16,0,0,0,.26,0,.52.52,0,0,0,.15-.31c0-.07.06-.16,0-.24a.36.36,0,0,0-.44-.17.42.42,0,0,0-.28.25h0l-.78-.21a.3.3,0,0,1,0-.11A.81.81,0,0,1,86.47,2a1.77,1.77,0,0,1,1.08-.16,1.1,1.1,0,0,1,.74.54,1.15,1.15,0,0,1-.06.91c-.05.13,0,.31-.14.45a1.08,1.08,0,0,1-1.73.06c-.06-.08,0-.2-.1-.27A1.33,1.33,0,0,1,86,2.79S86,2.75,86,2.71Z" style="fill:#e8e8ea"/><path d="M34.86,71.2l0-.06a2.74,2.74,0,0,1,.28-.26,2.41,2.41,0,0,1,1.31-.53,2.47,2.47,0,0,1,.87.14,1.3,1.3,0,0,1,.72.58,2,2,0,0,1,.25.85,2.71,2.71,0,0,1-.08.88,2.22,2.22,0,0,1-.34.76,2.61,2.61,0,0,1-.46.44,4.93,4.93,0,0,1-.47.33h0l0,0,0,0a2.63,2.63,0,0,0-.69.58A5.86,5.86,0,0,0,35.65,76q-.16.43-.41,1.19a.34.34,0,0,1-.18.21.36.36,0,0,1-.28,0,.34.34,0,0,1-.21-.17.35.35,0,0,1,0-.28q.26-.79.43-1.24a7.43,7.43,0,0,1,.62-1.21,2.39,2.39,0,0,1,.43-.45,5.69,5.69,0,0,1,.47-.33l0,0,0,0h0a2.88,2.88,0,0,0,.75-.6,1.35,1.35,0,0,0,.23-.51,2,2,0,0,0,.05-.63q-.06-.66-.48-.8a1.73,1.73,0,0,0-.6-.1,1.79,1.79,0,0,0-.59.16,1.69,1.69,0,0,0-.3.19l-.21.21-.06.06a.32.32,0,0,1-.25.12.35.35,0,0,1-.26-.1.37.37,0,0,1-.11-.25A.31.31,0,0,1,34.86,71.2Zm-.25,7.3a.34.34,0,0,1,.11.39.51.51,0,0,1,0,.11.7.7,0,0,1-.13.16.35.35,0,0,1-.4,0A.42.42,0,0,1,34,79a.68.68,0,0,1,0-.39.33.33,0,0,1,.13-.24.37.37,0,0,1,.55.13Z" style="fill:#4a5775"/><path d="M4.18,62.27l0-.07a2.74,2.74,0,0,1,.18-.34A2.41,2.41,0,0,1,5.47,61a2.47,2.47,0,0,1,.87-.14,1.3,1.3,0,0,1,.86.32,2,2,0,0,1,.5.73,2.71,2.71,0,0,1,.2.86,2.22,2.22,0,0,1-.09.83,2.61,2.61,0,0,1-.3.56,4.93,4.93,0,0,1-.35.46h0l0,0,0,0a2.63,2.63,0,0,0-.48.77,5.86,5.86,0,0,0-.19,1.2q0,.46,0,1.26a.34.34,0,0,1-.11.26.36.36,0,0,1-.26.1.34.34,0,0,1-.25-.1.35.35,0,0,1-.1-.26q0-.83,0-1.31a7.43,7.43,0,0,1,.22-1.34,2.39,2.39,0,0,1,.26-.56,5.69,5.69,0,0,1,.35-.46l0,0,0,0h0a2.88,2.88,0,0,0,.53-.8,1.35,1.35,0,0,0,.06-.56A2,2,0,0,0,7,62.15q-.27-.61-.71-.61a1.73,1.73,0,0,0-.61.09,1.79,1.79,0,0,0-.51.33,1.69,1.69,0,0,0-.23.28l-.13.26,0,.07a.32.32,0,0,1-.2.19.35.35,0,0,1-.28,0,.37.37,0,0,1-.19-.2A.31.31,0,0,1,4.18,62.27Zm2,7a.34.34,0,0,1,.23.34.51.51,0,0,1,0,.12.7.7,0,0,1-.07.19.35.35,0,0,1-.37.14A.42.42,0,0,1,5.74,70a.68.68,0,0,1-.16-.36.33.33,0,0,1,0-.27.37.37,0,0,1,.56,0Z" style="fill:#4a5775"/><path d="M58.35,98.24c-.07.08-.16.19-.23.22a1.23,1.23,0,0,1-1.08,0c-.28-.22-.53-.43-.82-.63a4,4,0,0,1-1.34-1.7,7.52,7.52,0,0,1-.5-2.05,9.3,9.3,0,0,1,0-1.77,2,2,0,0,1,.18-.63c0-.08.07-.16.52-.22a2.72,2.72,0,0,1,.32.11c.37.2.42.4.41.61a12.94,12.94,0,0,0,.1,2.2l.11.59a2.28,2.28,0,0,0,.08.59,4.06,4.06,0,0,0,1.61,1.82c.18.1.28.39.47.56l.23.19Z" style="fill:#4a5775"/></g></g></svg>