<svg height="512" viewBox="0 0 512 512" width="512" xmlns="http://www.w3.org/2000/svg"><g fill="none" fill-rule="evenodd" transform="translate(74 94)"><path d="m.48 193.68c0 9.609755 7.79024535 17.4 17.4 17.4h252.12c9.609755 0 17.4-7.790245 17.4-17.4v-95.64c0-4.8048773-3.895123-8.7-8.7-8.7h-79.68c-3.892401-.1286286-6.989939-3.3055904-7.02-7.2v-71.04c0-4.80487732-3.895123-8.7-8.7-8.7h-165.3c-9.60975465 0-17.4 7.7902454-17.4 17.4z" fill="#00b8f0" fill-rule="nonzero"/><path d="m192 11.1c0-4.80487732-3.895123-8.7-8.7-8.7h-165.3c-9.60975465 0-17.4 7.7902454-17.4 17.4v174c.01180205 5.655496 2.76216579 10.954977 7.38 14.22l184.02-184.02z" fill="#4acfff" fill-rule="nonzero"/><path d="m18 2.4c-9.60975465 0-17.4 7.7902454-17.4 17.4v26.1h191.4v-34.8c0-4.80487732-3.895123-8.7-8.7-8.7z" fill="#e8f4fa" fill-rule="nonzero"/><path d="m18 2.4c-9.60975465 0-17.4 7.7902454-17.4 17.4l-.00093669 21.72c-.04726462-4.6403819 1.76658067-9.1064522 5.03670754-12.3991317s7.72362555-5.1371762 12.36422915-5.1208683h174v-12.9c0-4.80487732-3.895123-8.7-8.7-8.7z" fill="#fff" fill-rule="nonzero"/><g stroke="#191816" stroke-linecap="round" stroke-linejoin="round" stroke-width="6"><path d="m.48 193.68c0 9.609755 7.79024535 17.4 17.4 17.4h252.12c9.609755 0 17.4-7.790245 17.4-17.4v-95.64c0-4.8048773-3.895123-8.7-8.7-8.7h-79.68c-3.892401-.1286286-6.989939-3.3055904-7.02-7.2v-71.04c0-4.80487732-3.895123-8.7-8.7-8.7h-165.3c-9.60975465 0-17.4 7.7902454-17.4 17.4z"/><path d="m191.76 19.8h95.64"/><path d="m191.76 54.6h95.64"/><path d="m226.5 2.4v86.94"/><path d="m261.3 2.4v86.94"/><path d="m18 2.4c-9.60975465 0-17.4 7.7902454-17.4 17.4v26.1h191.4v-34.8c0-4.80487732-3.895123-8.7-8.7-8.7z"/><path d="m43.92 24c-.3754576 4.5094078-4.1449887 7.9781274-8.67 7.9781274s-8.2945424-3.4687196-8.67-7.9781274c-.2722367-3.2696803 1.3181519-6.4144336 4.1130677-8.1329702 2.7949157-1.7185365 6.3189489-1.7185365 9.1138646 0 2.7949158 1.7185366 4.3853044 4.8632899 4.1130677 8.1329702z" fill="#ff6242" fill-rule="nonzero"/><path d="m83.1 24c0 4.8048773-3.8951227 8.7-8.7 8.7s-8.7-3.8951227-8.7-8.7 3.8951227-8.7 8.7-8.7c2.3122858-.0161141 4.5345397.895315 6.1696124 2.5303876 1.6350726 1.6350727 2.5465017 3.8573266 2.5303876 6.1696124z" fill="#ffe500" fill-rule="nonzero"/><path d="m117.84 24c0 4.8048773-3.895123 8.7-8.7 8.7s-8.7-3.8951227-8.7-8.7 3.895123-8.7 8.7-8.7c2.312286-.0161141 4.53454.895315 6.169612 2.5303876 1.635073 1.6350727 2.546502 3.8573266 2.530388 6.1696124z" fill="#6dd627" fill-rule="nonzero"/></g><ellipse cx="241.68" cy="332.94" fill="#191816" fill-rule="nonzero" opacity=".15" rx="86.94" ry="10.86"/><path d="m321.96 295.74c3.290416 3.301134 4.569752 8.106924 3.356094 12.607075-1.213657 4.500151-4.735926 8.010983-9.24 9.21s-9.305678-.095941-12.596094-3.397075l-107.58-107.58 18.48-18.42z" style="stroke:#191816;stroke-width:6;fill:#dea47a;fill-rule:nonzero;stroke-linecap:round;stroke-linejoin:round"/><path d="m215.4 176.88c1.336534 1.386586 2.088459 3.234173 2.1 5.16-.014573 1.907514-.767187 3.73529-2.1 5.1l-20.52 20.52c-2.834382 2.830416-7.425618 2.830416-10.26 0l-26.64-26.64c-2.830416-2.834382-2.830416-7.425618 0-10.26l20.52-20.76c2.834382-2.830416 7.425618-2.830416 10.26 0z" fill="#e8f4fa" fill-rule="nonzero"/><path d="m188.76 150c-1.386586-1.336534-3.234173-2.088459-5.16-2.1-1.910058.001857-3.742438.756366-5.1 2.1l-20.52 20.52c-1.343634 1.357562-2.098143 3.189942-2.1 5.1.011541 1.925827.763466 3.773414 2.1 5.16l12.3 12 30.72-30.72z" fill="#fff" fill-rule="nonzero"/><path d="m215.4 176.88c1.336534 1.386586 2.088459 3.234173 2.1 5.16-.014573 1.907514-.767187 3.73529-2.1 5.1l-20.52 20.52c-2.834382 2.830416-7.425618 2.830416-10.26 0l-26.64-26.64c-2.830416-2.834382-2.830416-7.425618 0-10.26l20.52-20.76c2.834382-2.830416 7.425618-2.830416 10.26 0z" stroke="#191816" stroke-linecap="round" stroke-linejoin="round" stroke-width="6"/><path d="m159 182.04c-18.571005 18.714776-18.571005 48.905224 0 67.62.882658.838741 2.178595 1.074366 3.3.6 1.126329-.500388 1.820998-1.650185 1.74-2.88-1.089361-16.316391 4.9264-32.307377 16.5-43.86z" style="stroke:#191816;stroke-width:6;fill:#e8f4fa;fill-rule:nonzero;stroke-linecap:round;stroke-linejoin:round"/><rect fill="#e8f4fa" fill-rule="nonzero" height="60.84" rx="6" transform="matrix(.70710678 -.70710678 .70710678 .70710678 -27.541619 199.168809)" width="26.1" x="213.59721" y="102.410079"/><path d="m219.48 107.22c-2.834382-2.830416-7.425618-2.830416-10.26 0l-8.16 8.22c-1.386024 1.334618-2.169155 3.175872-2.169155 5.1s.783131 3.765382 2.169155 5.1l18.42 18.36 18.42-18.42z" fill="#fff" fill-rule="nonzero"/><path d="m202.08 126.66c-.953605 8.811536-4.866607 17.039417-11.1 23.34l-1.2 1.2 21.48 21.54 1.2-1.2c6.293691-6.277651 14.556668-10.197268 23.4-11.1z" style="stroke:#191816;stroke-width:6;fill:#c0dceb;fill-rule:nonzero;stroke-linecap:round;stroke-linejoin:round"/><rect height="60.84" rx="6" stroke="#191816" stroke-linecap="round" stroke-linejoin="round" stroke-width="6" transform="matrix(.70710678 -.70710678 .70710678 .70710678 -27.541619 199.168809)" width="26.1" x="213.59721" y="102.410079"/><path d="m233.890043 159.839168h34.8v156.48h-34.8z" fill="#ff6242" fill-rule="nonzero" transform="matrix(.70710678 .70710678 -.70710678 .70710678 241.948544 -107.95712)"/><path d="m166.861755 223.292383h156.48v17.4h-156.48z" fill="#ff866e" fill-rule="nonzero" transform="matrix(.70710678 -.70710678 .70710678 .70710678 -92.254745 241.262109)"/><path d="m183.66 281.1-12.3 36.9 36.9-12.3z" style="stroke:#191816;stroke-width:6;fill:#ffe3cf;fill-rule:nonzero;stroke-linecap:round;stroke-linejoin:round"/><path d="m233.890043 159.839168h34.8v156.48h-34.8z" stroke="#191816" stroke-linecap="round" stroke-linejoin="round" stroke-width="6" transform="matrix(.70710678 .70710678 -.70710678 .70710678 241.948544 -107.95712)"/><path d="m318.9 195.06-24.6-24.6 12-12c4.35696-4.574808 10.851274-6.428617 16.966688-4.84316 6.115415 1.585457 10.891015 6.361057 12.476472 12.476472 1.585457 6.115414-.268352 12.609728-4.84316 16.966688z" style="stroke:#191816;stroke-width:6;fill:#ffcabf;fill-rule:nonzero;stroke-linecap:round;stroke-linejoin:round"/><path d="m165 324.12 6.66-6.66" stroke="#191816" stroke-linecap="round" stroke-linejoin="round" stroke-width="6"/></g></svg>